<svg width="115" height="40" viewBox="0 0 115 40" fill="none" xmlns="http://www.w3.org/2000/svg">
<path d="M16.6172 2.05273H13.7354V10H12.1421V2.05273H9.28564V0.757812H16.6172V2.05273ZM19.207 3.88086C19.7106 3.29688 20.3475 3.00488 21.1177 3.00488C22.5819 3.00488 23.3245 3.84066 23.3457 5.51221V10H21.8032V5.56934C21.8032 5.09538 21.6995 4.76107 21.4922 4.56641C21.2891 4.36751 20.9886 4.26807 20.5908 4.26807C19.973 4.26807 19.5117 4.54313 19.207 5.09326V10H17.6646V0.25H19.207V3.88086ZM27.9351 10.127C26.9575 10.127 26.1641 9.82015 25.5547 9.20654C24.9495 8.5887 24.647 7.76774 24.647 6.74365V6.55322C24.647 5.86768 24.7782 5.25618 25.0405 4.71875C25.3071 4.17708 25.6795 3.75602 26.1577 3.45557C26.6359 3.15511 27.1691 3.00488 27.7573 3.00488C28.6925 3.00488 29.4141 3.30322 29.9219 3.8999C30.4339 4.49658 30.6899 5.34082 30.6899 6.43262V7.05469H26.2021C26.2487 7.62174 26.437 8.07031 26.7671 8.40039C27.1014 8.73047 27.5203 8.89551 28.0239 8.89551C28.7306 8.89551 29.3062 8.60986 29.7505 8.03857L30.582 8.83203C30.307 9.24251 29.9388 9.56201 29.4775 9.79053C29.0205 10.0148 28.5063 10.127 27.9351 10.127ZM27.751 4.24268C27.3278 4.24268 26.985 4.39079 26.7227 4.68701C26.4645 4.98324 26.2995 5.39583 26.2275 5.9248H29.1665V5.81055C29.1326 5.29427 28.9951 4.90495 28.7539 4.64258C28.5127 4.37598 28.1784 4.24268 27.751 4.24268Z" fill="#D95786"/>
<path d="M93.2837 33.6201C93.2837 34.4961 93.144 35.2557 92.8647 35.8989C92.5897 36.5379 92.2025 37.0457 91.7031 37.4224L93.29 38.6602L92.249 39.5996L90.2812 38.0444C90.0231 38.0994 89.7459 38.127 89.4497 38.127C88.7049 38.127 88.0384 37.945 87.4502 37.5811C86.8662 37.2129 86.4134 36.6903 86.0918 36.0132C85.7744 35.3361 85.6136 34.5553 85.6094 33.6709V33.1504C85.6094 32.249 85.7681 31.4535 86.0854 30.7637C86.4071 30.0739 86.8577 29.547 87.4375 29.1831C88.0215 28.8149 88.688 28.6309 89.437 28.6309C90.1987 28.6309 90.8695 28.8128 91.4492 29.1768C92.0332 29.5365 92.4839 30.057 92.8013 30.7383C93.1187 31.4154 93.2795 32.2046 93.2837 33.106V33.6201ZM91.6714 33.1377C91.6714 32.0967 91.4767 31.3075 91.0874 30.77C90.6981 30.2326 90.1479 29.9639 89.437 29.9639C88.7472 29.9639 88.2056 30.2368 87.812 30.7827C87.4227 31.3244 87.2238 32.0903 87.2153 33.0806V33.6201C87.2153 34.6188 87.41 35.3996 87.7993 35.9624C88.1929 36.5252 88.743 36.8066 89.4497 36.8066C90.1649 36.8066 90.7129 36.5358 91.0938 35.9941C91.4788 35.4525 91.6714 34.6611 91.6714 33.6201V33.1377ZM98.9268 37.3271C98.474 37.8604 97.8307 38.127 96.9971 38.127C96.2523 38.127 95.6873 37.909 95.3022 37.4731C94.9214 37.0373 94.731 36.4067 94.731 35.5815V31.1318H96.2734V35.5625C96.2734 36.4342 96.6353 36.8701 97.3589 36.8701C98.1079 36.8701 98.6136 36.6014 98.876 36.064V31.1318H100.418V38H98.9648L98.9268 37.3271ZM106.093 38C106.026 37.8688 105.966 37.6551 105.916 37.3589C105.425 37.8709 104.824 38.127 104.113 38.127C103.423 38.127 102.86 37.9302 102.424 37.5366C101.988 37.1431 101.771 36.6564 101.771 36.0767C101.771 35.3446 102.041 34.7839 102.583 34.3945C103.129 34.001 103.908 33.8042 104.919 33.8042H105.865V33.3535C105.865 32.998 105.765 32.7145 105.566 32.5029C105.368 32.2871 105.065 32.1792 104.659 32.1792C104.307 32.1792 104.02 32.2681 103.795 32.4458C103.571 32.6193 103.459 32.8415 103.459 33.1123H101.917C101.917 32.7357 102.041 32.3844 102.291 32.0586C102.541 31.7285 102.879 31.4704 103.307 31.2842C103.738 31.098 104.219 31.0049 104.748 31.0049C105.552 31.0049 106.193 31.208 106.671 31.6143C107.149 32.0163 107.395 32.5833 107.407 33.3154V36.4131C107.407 37.0309 107.494 37.5239 107.667 37.8921V38H106.093ZM104.398 36.8892C104.703 36.8892 104.989 36.8151 105.255 36.667C105.526 36.5189 105.729 36.32 105.865 36.0703V34.7754H105.033C104.462 34.7754 104.032 34.8748 103.745 35.0737C103.457 35.2726 103.313 35.554 103.313 35.918C103.313 36.2142 103.41 36.4512 103.605 36.6289C103.804 36.8024 104.068 36.8892 104.398 36.8892ZM108.734 34.5151C108.734 33.4572 108.979 32.6087 109.47 31.9697C109.961 31.3265 110.619 31.0049 111.444 31.0049C112.172 31.0049 112.76 31.2588 113.209 31.7666V28.25H114.751V38H113.355L113.279 37.2891C112.818 37.8477 112.202 38.127 111.432 38.127C110.628 38.127 109.976 37.8032 109.477 37.1558C108.981 36.5083 108.734 35.6281 108.734 34.5151ZM110.276 34.6484C110.276 35.3467 110.41 35.8926 110.676 36.2861C110.947 36.6755 111.33 36.8701 111.825 36.8701C112.456 36.8701 112.917 36.5887 113.209 36.0259V33.0933C112.925 32.5431 112.468 32.2681 111.838 32.2681C111.339 32.2681 110.953 32.467 110.683 32.8647C110.412 33.2583 110.276 33.8529 110.276 34.6484Z" fill="#D95786"/>
<path d="M7.98926 21.7041C7.98926 21.1416 7.79004 20.708 7.3916 20.4033C6.99902 20.0986 6.28711 19.791 5.25586 19.4805C4.22461 19.1699 3.4043 18.8242 2.79492 18.4434C1.62891 17.7109 1.0459 16.7559 1.0459 15.5781C1.0459 14.5469 1.46484 13.6973 2.30273 13.0293C3.14648 12.3613 4.23926 12.0273 5.58105 12.0273C6.47168 12.0273 7.26562 12.1914 7.96289 12.5195C8.66016 12.8477 9.20801 13.3164 9.60645 13.9258C10.0049 14.5293 10.2041 15.2002 10.2041 15.9385H7.98926C7.98926 15.2705 7.77832 14.749 7.35645 14.374C6.94043 13.9932 6.34277 13.8027 5.56348 13.8027C4.83691 13.8027 4.27148 13.958 3.86719 14.2686C3.46875 14.5791 3.26953 15.0127 3.26953 15.5693C3.26953 16.0381 3.48633 16.4307 3.91992 16.7471C4.35352 17.0576 5.06836 17.3623 6.06445 17.6611C7.06055 17.9541 7.86035 18.291 8.46387 18.6719C9.06738 19.0469 9.50977 19.4805 9.79102 19.9727C10.0723 20.459 10.2129 21.0303 10.2129 21.6865C10.2129 22.7529 9.80273 23.6025 8.98242 24.2354C8.16797 24.8623 7.06055 25.1758 5.66016 25.1758C4.73438 25.1758 3.88184 25.0059 3.10254 24.666C2.3291 24.3203 1.72559 23.8457 1.29199 23.2422C0.864258 22.6387 0.650391 21.9355 0.650391 21.1328H2.87402C2.87402 21.8594 3.11426 22.4219 3.59473 22.8203C4.0752 23.2188 4.76367 23.418 5.66016 23.418C6.43359 23.418 7.01367 23.2627 7.40039 22.9521C7.79297 22.6357 7.98926 22.2197 7.98926 21.7041ZM14.6338 13.1787V15.4902H16.3125V17.0723H14.6338V22.3809C14.6338 22.7441 14.7041 23.0078 14.8447 23.1719C14.9912 23.3301 15.249 23.4092 15.6182 23.4092C15.8643 23.4092 16.1133 23.3799 16.3652 23.3213V24.9736C15.8789 25.1084 15.4102 25.1758 14.959 25.1758C13.3184 25.1758 12.498 24.2705 12.498 22.46V17.0723H10.9336V15.4902H12.498V13.1787H14.6338ZM22.9307 17.4414C22.6494 17.3945 22.3594 17.3711 22.0605 17.3711C21.082 17.3711 20.4229 17.7461 20.083 18.4961V25H17.9473V15.4902H19.9863L20.0391 16.5537C20.5547 15.7275 21.2695 15.3145 22.1836 15.3145C22.4883 15.3145 22.7402 15.3555 22.9395 15.4375L22.9307 17.4414ZM29.6982 25C29.6045 24.8184 29.5225 24.5225 29.4521 24.1123C28.7725 24.8213 27.9404 25.1758 26.9561 25.1758C26.001 25.1758 25.2217 24.9033 24.6182 24.3584C24.0146 23.8135 23.7129 23.1396 23.7129 22.3369C23.7129 21.3232 24.0879 20.5469 24.8379 20.0078C25.5938 19.4629 26.6719 19.1904 28.0723 19.1904H29.3818V18.5664C29.3818 18.0742 29.2441 17.6816 28.9688 17.3887C28.6934 17.0898 28.2744 16.9404 27.7119 16.9404C27.2256 16.9404 26.8271 17.0635 26.5166 17.3096C26.2061 17.5498 26.0508 17.8574 26.0508 18.2324H23.915C23.915 17.7109 24.0879 17.2246 24.4336 16.7734C24.7793 16.3164 25.248 15.959 25.8398 15.7012C26.4375 15.4434 27.1025 15.3145 27.835 15.3145C28.9482 15.3145 29.8359 15.5957 30.498 16.1582C31.1602 16.7148 31.5 17.5 31.5176 18.5137V22.8027C31.5176 23.6582 31.6377 24.3408 31.8779 24.8506V25H29.6982ZM27.3516 23.4619C27.7734 23.4619 28.1689 23.3594 28.5381 23.1543C28.9131 22.9492 29.1943 22.6738 29.3818 22.3281V20.5352H28.2305C27.4395 20.5352 26.8447 20.6729 26.4463 20.9482C26.0479 21.2236 25.8486 21.6133 25.8486 22.1172C25.8486 22.5273 25.9834 22.8555 26.2529 23.1016C26.5283 23.3418 26.8945 23.4619 27.3516 23.4619ZM36.4307 13.1787V15.4902H38.1094V17.0723H36.4307V22.3809C36.4307 22.7441 36.501 23.0078 36.6416 23.1719C36.7881 23.3301 37.0459 23.4092 37.415 23.4092C37.6611 23.4092 37.9102 23.3799 38.1621 23.3213V24.9736C37.6758 25.1084 37.207 25.1758 36.7559 25.1758C35.1152 25.1758 34.2949 24.2705 34.2949 22.46V17.0723H32.7305V15.4902H34.2949V13.1787H36.4307ZM41.8535 16.5273C42.5508 15.7188 43.4326 15.3145 44.499 15.3145C46.5264 15.3145 47.5547 16.4717 47.584 18.7861V25H45.4482V18.8652C45.4482 18.209 45.3047 17.7461 45.0176 17.4766C44.7363 17.2012 44.3203 17.0635 43.7695 17.0635C42.9141 17.0635 42.2754 17.4443 41.8535 18.2061V25H39.7178V11.5H41.8535V16.5273ZM58.1045 22.0557L59.6162 15.4902H61.6992L59.1064 25H57.3486L55.3096 18.4697L53.3057 25H51.5479L48.9463 15.4902H51.0293L52.5674 21.9854L54.5186 15.4902H56.127L58.1045 22.0557ZM68.8096 25C68.7158 24.8184 68.6338 24.5225 68.5635 24.1123C67.8838 24.8213 67.0518 25.1758 66.0674 25.1758C65.1123 25.1758 64.333 24.9033 63.7295 24.3584C63.126 23.8135 62.8242 23.1396 62.8242 22.3369C62.8242 21.3232 63.1992 20.5469 63.9492 20.0078C64.7051 19.4629 65.7832 19.1904 67.1836 19.1904H68.4932V18.5664C68.4932 18.0742 68.3555 17.6816 68.0801 17.3887C67.8047 17.0898 67.3857 16.9404 66.8232 16.9404C66.3369 16.9404 65.9385 17.0635 65.6279 17.3096C65.3174 17.5498 65.1621 17.8574 65.1621 18.2324H63.0264C63.0264 17.7109 63.1992 17.2246 63.5449 16.7734C63.8906 16.3164 64.3594 15.959 64.9512 15.7012C65.5488 15.4434 66.2139 15.3145 66.9463 15.3145C68.0596 15.3145 68.9473 15.5957 69.6094 16.1582C70.2715 16.7148 70.6113 17.5 70.6289 18.5137V22.8027C70.6289 23.6582 70.749 24.3408 70.9893 24.8506V25H68.8096ZM66.4629 23.4619C66.8848 23.4619 67.2803 23.3594 67.6494 23.1543C68.0244 22.9492 68.3057 22.6738 68.4932 22.3281V20.5352H67.3418C66.5508 20.5352 65.9561 20.6729 65.5576 20.9482C65.1592 21.2236 64.96 21.6133 64.96 22.1172C64.96 22.5273 65.0947 22.8555 65.3643 23.1016C65.6396 23.3418 66.0059 23.4619 66.4629 23.4619ZM75.1377 25H73.002V11.5H75.1377V25ZM77.0713 20.1748C77.0713 18.71 77.4111 17.5352 78.0908 16.6504C78.7705 15.7598 79.6816 15.3145 80.8242 15.3145C81.832 15.3145 82.6465 15.666 83.2676 16.3691V11.5H85.4033V25H83.4697L83.3643 24.0156C82.7256 24.7891 81.873 25.1758 80.8066 25.1758C79.6934 25.1758 78.791 24.7275 78.0996 23.8311C77.4141 22.9346 77.0713 21.7158 77.0713 20.1748ZM79.207 20.3594C79.207 21.3262 79.3916 22.082 79.7607 22.627C80.1357 23.166 80.666 23.4355 81.3516 23.4355C82.2246 23.4355 82.8633 23.0459 83.2676 22.2666V18.2061C82.875 17.4443 82.2422 17.0635 81.3691 17.0635C80.6777 17.0635 80.1445 17.3389 79.7695 17.8896C79.3945 18.4346 79.207 19.2578 79.207 20.3594ZM91.8193 25.1758C90.4658 25.1758 89.3672 24.751 88.5234 23.9014C87.6855 23.0459 87.2666 21.9092 87.2666 20.4912V20.2275C87.2666 19.2783 87.4482 18.4316 87.8115 17.6875C88.1807 16.9375 88.6963 16.3545 89.3584 15.9385C90.0205 15.5225 90.7588 15.3145 91.5732 15.3145C92.8682 15.3145 93.8672 15.7275 94.5703 16.5537C95.2793 17.3799 95.6338 18.5488 95.6338 20.0605V20.9219H89.4199C89.4844 21.707 89.7451 22.3281 90.2021 22.7852C90.665 23.2422 91.2451 23.4707 91.9424 23.4707C92.9209 23.4707 93.7178 23.0752 94.333 22.2842L95.4844 23.3828C95.1035 23.9512 94.5938 24.3936 93.9551 24.71C93.3223 25.0205 92.6104 25.1758 91.8193 25.1758ZM91.5645 17.0283C90.9785 17.0283 90.5039 17.2334 90.1406 17.6436C89.7832 18.0537 89.5547 18.625 89.4551 19.3574H93.5244V19.1992C93.4775 18.4844 93.2871 17.9453 92.9531 17.582C92.6191 17.2129 92.1562 17.0283 91.5645 17.0283ZM102.981 25C102.888 24.8184 102.806 24.5225 102.735 24.1123C102.056 24.8213 101.224 25.1758 100.239 25.1758C99.2842 25.1758 98.5049 24.9033 97.9014 24.3584C97.2979 23.8135 96.9961 23.1396 96.9961 22.3369C96.9961 21.3232 97.3711 20.5469 98.1211 20.0078C98.877 19.4629 99.9551 19.1904 101.355 19.1904H102.665V18.5664C102.665 18.0742 102.527 17.6816 102.252 17.3887C101.977 17.0898 101.558 16.9404 100.995 16.9404C100.509 16.9404 100.11 17.0635 99.7998 17.3096C99.4893 17.5498 99.334 17.8574 99.334 18.2324H97.1982C97.1982 17.7109 97.3711 17.2246 97.7168 16.7734C98.0625 16.3164 98.5312 15.959 99.123 15.7012C99.7207 15.4434 100.386 15.3145 101.118 15.3145C102.231 15.3145 103.119 15.5957 103.781 16.1582C104.443 16.7148 104.783 17.5 104.801 18.5137V22.8027C104.801 23.6582 104.921 24.3408 105.161 24.8506V25H102.981ZM100.635 23.4619C101.057 23.4619 101.452 23.3594 101.821 23.1543C102.196 22.9492 102.478 22.6738 102.665 22.3281V20.5352H101.514C100.723 20.5352 100.128 20.6729 99.7295 20.9482C99.3311 21.2236 99.1318 21.6133 99.1318 22.1172C99.1318 22.5273 99.2666 22.8555 99.5361 23.1016C99.8115 23.3418 100.178 23.4619 100.635 23.4619ZM109.02 15.4902L109.081 16.5889C109.784 15.7393 110.707 15.3145 111.85 15.3145C113.83 15.3145 114.838 16.4482 114.873 18.7158V25H112.737V18.8389C112.737 18.2354 112.605 17.79 112.342 17.5029C112.084 17.21 111.659 17.0635 111.067 17.0635C110.206 17.0635 109.564 17.4531 109.143 18.2324V25H107.007V15.4902H109.02Z" fill="#15C106"/>
<rect width="80" height="2" transform="matrix(1 0 0 -1 0 36)" fill="#D95786"/>
</svg>
